<svg xmlns="http://www.w3.org/2000/svg" id="export" class="canvas" preserveAspectRatio="xMidYMid meet" style="" width="127" height="561"><rect id="background" fill="#fff" pointer-events="all" width="127" height="561"/><g id="origin" transform="translate(5.734619140625, 5.734619140625) scale(1)"><g id="clusters" class="clusters"/><g id="edge-paths" class="edge-paths"><defs><marker id="arrowhead" viewBox="0 0 10 10" refX="9" refY="5" markerUnits="strokeWidth" markerWidth="8" markerHeight="6" orient="auto" style="fill: rgb(0, 0, 0);"><path d="M 0 0 L 10 5 L 0 10 L 4 5 z" style="stroke-width: 1;"/></marker><marker id="arrowhead-select" viewBox="0 0 10 10" refX="9" refY="5" markerUnits="strokeWidth" markerWidth="8" markerHeight="6" orient="auto" style="fill: rgb(238, 0, 0);"><path d="M 0 0 L 10 5 L 0 10 L 4 5 z" style="stroke-width: 1;"/></marker><marker id="arrowhead-hover" viewBox="0 0 10 10" refX="9" refY="5" markerUnits="strokeWidth" markerWidth="8" markerHeight="6" orient="auto"><path d="M 0 0 L 10 5 L 0 10 L 4 5 z" style="stroke-width: 1;"/></marker></defs><path id="edge-input.1" class="edge-path" d="M44.435546875,23L44.435546875,24.666666666666668C44.435546875,26.333333333333332,44.435546875,29.666666666666668,44.435546875,35C44.435546875,40.333333333333336,44.435546875,47.666666666666664,44.435546875,55C44.435546875,62.333333333333336,44.435546875,69.66666666666667,44.435546875,75C44.435546875,80.33333333333333,44.435546875,83.66666666666667,44.435546875,85.33333333333333L44.435546875,87" style="stroke: rgb(0, 0, 0); stroke-width: 1px; fill: none; marker-end: url(&quot;#arrowhead&quot;);"/><path class="edge-path-hit-test" d="M44.435546875,23L44.435546875,24.666666666666668C44.435546875,26.333333333333332,44.435546875,29.666666666666668,44.435546875,35C44.435546875,40.333333333333336,44.435546875,47.666666666666664,44.435546875,55C44.435546875,62.333333333333336,44.435546875,69.66666666666667,44.435546875,75C44.435546875,80.33333333333333,44.435546875,83.66666666666667,44.435546875,85.33333333333333L44.435546875,87" style="pointer-events: stroke; stroke-width: 0.5em; fill: none; stroke: rgb(0, 0, 0); stroke-opacity: 0.001;"/><path id="edge-/conv1/Conv_output_0" class="edge-path" d="M44.435546875,200L44.435546875,201.66666666666666C44.435546875,203.33333333333334,44.435546875,206.66666666666666,44.435546875,210C44.435546875,213.33333333333334,44.435546875,216.66666666666666,44.435546875,218.33333333333334L44.435546875,220" style="stroke: rgb(0, 0, 0); stroke-width: 1px; fill: none; marker-end: url(&quot;#arrowhead&quot;);"/><path class="edge-path-hit-test" d="M44.435546875,200L44.435546875,201.66666666666666C44.435546875,203.33333333333334,44.435546875,206.66666666666666,44.435546875,210C44.435546875,213.33333333333334,44.435546875,216.66666666666666,44.435546875,218.33333333333334L44.435546875,220" style="pointer-events: stroke; stroke-width: 0.5em; fill: none; stroke: rgb(0, 0, 0); stroke-opacity: 0.001;"/><path id="edge-/relu/Relu_output_0" class="edge-path" d="M44.435546875,243L44.435546875,244.66666666666666C44.435546875,246.33333333333334,44.435546875,249.66666666666666,44.435546875,253C44.435546875,256.3333333333333,44.435546875,259.6666666666667,44.435546875,261.3333333333333L44.435546875,263" style="stroke: rgb(0, 0, 0); stroke-width: 1px; fill: none; marker-end: url(&quot;#arrowhead&quot;);"/><path class="edge-path-hit-test" d="M44.435546875,243L44.435546875,244.66666666666666C44.435546875,246.33333333333334,44.435546875,249.66666666666666,44.435546875,253C44.435546875,256.3333333333333,44.435546875,259.6666666666667,44.435546875,261.3333333333333L44.435546875,263" style="pointer-events: stroke; stroke-width: 0.5em; fill: none; stroke: rgb(0, 0, 0); stroke-opacity: 0.001;"/><path id="edge-/maxpool/MaxPool_output_0" class="edge-path" d="M44.435546875,348L44.435546875,349.6666666666667C44.435546875,351.3333333333333,44.435546875,354.6666666666667,44.435546875,358C44.435546875,361.3333333333333,44.435546875,364.6666666666667,44.435546875,366.3333333333333L44.435546875,368" style="stroke: rgb(0, 0, 0); stroke-width: 1px; fill: none; marker-end: url(&quot;#arrowhead&quot;);"/><path class="edge-path-hit-test" d="M44.435546875,348L44.435546875,349.6666666666667C44.435546875,351.3333333333333,44.435546875,354.6666666666667,44.435546875,358C44.435546875,361.3333333333333,44.435546875,364.6666666666667,44.435546875,366.3333333333333L44.435546875,368" style="pointer-events: stroke; stroke-width: 0.5em; fill: none; stroke: rgb(0, 0, 0); stroke-opacity: 0.001;"/><path id="edge-/flatten/Flatten_output_0" class="edge-path" d="M44.435546875,391L44.435546875,392.6666666666667C44.435546875,394.3333333333333,44.435546875,397.6666666666667,44.435546875,401C44.435546875,404.3333333333333,44.435546875,407.6666666666667,44.435546875,409.3333333333333L44.435546875,411" style="stroke: rgb(0, 0, 0); stroke-width: 1px; fill: none; marker-end: url(&quot;#arrowhead&quot;);"/><path class="edge-path-hit-test" d="M44.435546875,391L44.435546875,392.6666666666667C44.435546875,394.3333333333333,44.435546875,397.6666666666667,44.435546875,401C44.435546875,404.3333333333333,44.435546875,407.6666666666667,44.435546875,409.3333333333333L44.435546875,411" style="pointer-events: stroke; stroke-width: 0.5em; fill: none; stroke: rgb(0, 0, 0); stroke-opacity: 0.001;"/><path id="edge-9" class="edge-path" d="M44.435546875,482L44.435546875,485.6666666666667C44.435546875,489.3333333333333,44.435546875,496.6666666666667,44.435546875,504C44.435546875,511.3333333333333,44.435546875,518.6666666666666,44.435546875,522.3333333333334L44.435546875,526" style="stroke: rgb(0, 0, 0); stroke-width: 1px; fill: none; marker-end: url(&quot;#arrowhead&quot;);"/><path class="edge-path-hit-test" d="M44.435546875,482L44.435546875,485.6666666666667C44.435546875,489.3333333333333,44.435546875,496.6666666666667,44.435546875,504C44.435546875,511.3333333333333,44.435546875,518.6666666666666,44.435546875,522.3333333333334L44.435546875,526" style="pointer-events: stroke; stroke-width: 0.5em; fill: none; stroke: rgb(0, 0, 0); stroke-opacity: 0.001;"/></g><g id="edge-labels" class="edge-labels"><text class="edge-label" id="edge-label-edge-input.1" transform="translate(49.435546875,48)" style="opacity: 1; font-family: -apple-system, BlinkMacSystemFont, &quot;Segoe WPC&quot;, &quot;Segoe UI&quot;, Ubuntu, &quot;Droid Sans&quot;, sans-serif, &quot;PingFang SC&quot;; font-size: 10px;"><tspan xml:space="preserve" dy="1em" x="1">1×3×512×512</tspan></text><text class="edge-label" id="edge-label-edge-9" transform="translate(49.435546875,497)" style="opacity: 1; font-family: -apple-system, BlinkMacSystemFont, &quot;Segoe WPC&quot;, &quot;Segoe UI&quot;, Ubuntu, &quot;Droid Sans&quot;, sans-serif, &quot;PingFang SC&quot;; font-size: 10px;"><tspan xml:space="preserve" dy="1em" x="1">1×2</tspan></text></g><g id="nodes" class="nodes"><g id="input-name-input.1" class="node graph-input" transform="translate(20.623046875,0)" style="opacity: 1;"><g class="node-item graph-item-input" transform="translate(0,0)"><path d="M5,0h37.625a5,5 0 0 1 5,5v13a5,5 0 0 1 -5,5h-37.625a5,5 0 0 1 -5,-5v-13a5,5 0 0 1 5,-5z" style="stroke: rgb(0, 0, 0); fill: rgb(238, 238, 238); stroke-width: 0;"/><text x="6" y="16" style="font-family: -apple-system, BlinkMacSystemFont, &quot;Segoe WPC&quot;, &quot;Segoe UI&quot;, Ubuntu, &quot;Droid Sans&quot;, sans-serif, &quot;PingFang SC&quot;; font-size: 11px; text-rendering: geometricprecision; user-select: none;">input.1</text><title>float32[1,3,512,512]</title></g><path class="node border" d="M5,0h37.625a5,5 0 0 1 5,5v13a5,5 0 0 1 -5,5h-37.625a5,5 0 0 1 -5,-5v-13a5,5 0 0 1 5,-5z" style="stroke: rgb(51, 51, 51); fill: none; stroke-width: 1px;"/></g><g id="node-name-/conv1/Conv" class="node graph-node" transform="translate(0,87)" style="opacity: 1;"><g class="node-item node-item-type node-item-type-layer" transform="translate(0,0)"><path d="M5,0h78.87109375a5,5 0 0 1 5,5v18a0,0 0 0 1 0,0h-88.87109375a0,0 0 0 1 0,0v-18a5,5 0 0 1 5,-5z" style="stroke: rgb(0, 0, 0); fill: rgb(51, 85, 136); stroke-width: 0;"/><text x="6" y="16" style="font-family: -apple-system, BlinkMacSystemFont, &quot;Segoe WPC&quot;, &quot;Segoe UI&quot;, Ubuntu, &quot;Droid Sans&quot;, sans-serif, &quot;PingFang SC&quot;; font-size: 11px; text-rendering: geometricprecision; user-select: none; fill: rgb(255, 255, 255);">Conv</text><title>/conv1/Conv</title></g><g class="node-attribute" transform="translate(0,23)"><path d="M0,0h88.87109375a0,0 0 0 1 0,0v85a5,5 0 0 1 -5,5h-78.87109375a5,5 0 0 1 -5,-5v-85a0,0 0 0 1 0,0z" style="stroke: rgb(0, 0, 0); fill: rgb(255, 255, 255); stroke-width: 0;"/><text xml:space="preserve" x="6" y="14" style="font-family: -apple-system, BlinkMacSystemFont, &quot;Segoe WPC&quot;, &quot;Segoe UI&quot;, Ubuntu, &quot;Droid Sans&quot;, sans-serif, &quot;PingFang SC&quot;; font-size: 9px; font-weight: normal; text-rendering: geometricprecision; user-select: none;"><title>float32[16,3,3,3]</title><tspan style="font-weight: bold;">W</tspan><tspan>〈16×3×3×3〉</tspan></text><text xml:space="preserve" x="6" y="28" style="font-family: -apple-system, BlinkMacSystemFont, &quot;Segoe WPC&quot;, &quot;Segoe UI&quot;, Ubuntu, &quot;Droid Sans&quot;, sans-serif, &quot;PingFang SC&quot;; font-size: 9px; font-weight: normal; text-rendering: geometricprecision; user-select: none;"><title>float32[16]</title><tspan style="font-weight: bold;">B</tspan><tspan>〈16〉</tspan></text><text xml:space="preserve" x="6" y="42" style="font-family: -apple-system, BlinkMacSystemFont, &quot;Segoe WPC&quot;, &quot;Segoe UI&quot;, Ubuntu, &quot;Droid Sans&quot;, sans-serif, &quot;PingFang SC&quot;; font-size: 9px; font-weight: normal; text-rendering: geometricprecision; user-select: none;"><title>int64[]</title><tspan>dilations</tspan><tspan> = 1, 1</tspan></text><text xml:space="preserve" x="6" y="56" style="font-family: -apple-system, BlinkMacSystemFont, &quot;Segoe WPC&quot;, &quot;Segoe UI&quot;, Ubuntu, &quot;Droid Sans&quot;, sans-serif, &quot;PingFang SC&quot;; font-size: 9px; font-weight: normal; text-rendering: geometricprecision; user-select: none;"><title>int64[]</title><tspan>kernel_shape</tspan><tspan> = 3, 3</tspan></text><text xml:space="preserve" x="6" y="70" style="font-family: -apple-system, BlinkMacSystemFont, &quot;Segoe WPC&quot;, &quot;Segoe UI&quot;, Ubuntu, &quot;Droid Sans&quot;, sans-serif, &quot;PingFang SC&quot;; font-size: 9px; font-weight: normal; text-rendering: geometricprecision; user-select: none;"><title>int64[]</title><tspan>pads</tspan><tspan> = 1, 1, 1, 1</tspan></text><text xml:space="preserve" x="6" y="84" style="font-family: -apple-system, BlinkMacSystemFont, &quot;Segoe WPC&quot;, &quot;Segoe UI&quot;, Ubuntu, &quot;Droid Sans&quot;, sans-serif, &quot;PingFang SC&quot;; font-size: 9px; font-weight: normal; text-rendering: geometricprecision; user-select: none;"><title>int64[]</title><tspan>strides</tspan><tspan> = 1, 1</tspan></text><line class="node" x1="0" x2="88.87109375" y1="0" y2="0" style="stroke: rgb(51, 51, 51); fill: none; stroke-width: 1px;"/></g><path class="node border" d="M5,0h78.87109375a5,5 0 0 1 5,5v103a5,5 0 0 1 -5,5h-78.87109375a5,5 0 0 1 -5,-5v-103a5,5 0 0 1 5,-5z" style="stroke: rgb(51, 51, 51); fill: none; stroke-width: 1px;"/></g><g id="node-name-/relu/Relu" class="node graph-node" transform="translate(26.982421875,220)" style="opacity: 1;"><g class="node-item node-item-type node-item-type-activation" transform="translate(0,0)"><path d="M5,0h24.90625a5,5 0 0 1 5,5v13a5,5 0 0 1 -5,5h-24.90625a5,5 0 0 1 -5,-5v-13a5,5 0 0 1 5,-5z" style="stroke: rgb(0, 0, 0); fill: rgb(112, 41, 33); stroke-width: 0;"/><text x="6" y="16" style="font-family: -apple-system, BlinkMacSystemFont, &quot;Segoe WPC&quot;, &quot;Segoe UI&quot;, Ubuntu, &quot;Droid Sans&quot;, sans-serif, &quot;PingFang SC&quot;; font-size: 11px; text-rendering: geometricprecision; user-select: none; fill: rgb(255, 255, 255);">Relu</text><title>/relu/Relu</title></g><path class="node border" d="M5,0h24.90625a5,5 0 0 1 5,5v13a5,5 0 0 1 -5,5h-24.90625a5,5 0 0 1 -5,-5v-13a5,5 0 0 1 5,-5z" style="stroke: rgb(51, 51, 51); fill: none; stroke-width: 1px;"/></g><g id="node-name-/maxpool/MaxPool" class="node graph-node" transform="translate(0,263)" style="opacity: 1;"><g class="node-item node-item-type node-item-type-pool" transform="translate(0,0)"><path d="M5,0h78.87109375a5,5 0 0 1 5,5v18a0,0 0 0 1 0,0h-88.87109375a0,0 0 0 1 0,0v-18a5,5 0 0 1 5,-5z" style="stroke: rgb(0, 0, 0); fill: rgb(51, 85, 51); stroke-width: 0;"/><text x="6" y="16" style="font-family: -apple-system, BlinkMacSystemFont, &quot;Segoe WPC&quot;, &quot;Segoe UI&quot;, Ubuntu, &quot;Droid Sans&quot;, sans-serif, &quot;PingFang SC&quot;; font-size: 11px; text-rendering: geometricprecision; user-select: none; fill: rgb(255, 255, 255);">MaxPool</text><title>/maxpool/MaxPool</title></g><g class="node-attribute" transform="translate(0,23)"><path d="M0,0h88.87109375a0,0 0 0 1 0,0v57a5,5 0 0 1 -5,5h-78.87109375a5,5 0 0 1 -5,-5v-57a0,0 0 0 1 0,0z" style="stroke: rgb(0, 0, 0); fill: rgb(255, 255, 255); stroke-width: 0;"/><text xml:space="preserve" x="6" y="14" style="font-family: -apple-system, BlinkMacSystemFont, &quot;Segoe WPC&quot;, &quot;Segoe UI&quot;, Ubuntu, &quot;Droid Sans&quot;, sans-serif, &quot;PingFang SC&quot;; font-size: 9px; font-weight: normal; text-rendering: geometricprecision; user-select: none;"><title>int64</title><tspan>ceil_mode</tspan><tspan> = 0</tspan></text><text xml:space="preserve" x="6" y="28" style="font-family: -apple-system, BlinkMacSystemFont, &quot;Segoe WPC&quot;, &quot;Segoe UI&quot;, Ubuntu, &quot;Droid Sans&quot;, sans-serif, &quot;PingFang SC&quot;; font-size: 9px; font-weight: normal; text-rendering: geometricprecision; user-select: none;"><title>int64[]</title><tspan>kernel_shape</tspan><tspan> = 2, 2</tspan></text><text xml:space="preserve" x="6" y="42" style="font-family: -apple-system, BlinkMacSystemFont, &quot;Segoe WPC&quot;, &quot;Segoe UI&quot;, Ubuntu, &quot;Droid Sans&quot;, sans-serif, &quot;PingFang SC&quot;; font-size: 9px; font-weight: normal; text-rendering: geometricprecision; user-select: none;"><title>int64[]</title><tspan>pads</tspan><tspan> = 0, 0, 0, 0</tspan></text><text xml:space="preserve" x="6" y="56" style="font-family: -apple-system, BlinkMacSystemFont, &quot;Segoe WPC&quot;, &quot;Segoe UI&quot;, Ubuntu, &quot;Droid Sans&quot;, sans-serif, &quot;PingFang SC&quot;; font-size: 9px; font-weight: normal; text-rendering: geometricprecision; user-select: none;"><title>int64[]</title><tspan>strides</tspan><tspan> = 2, 2</tspan></text><line class="node" x1="0" x2="88.87109375" y1="0" y2="0" style="stroke: rgb(51, 51, 51); fill: none; stroke-width: 1px;"/></g><path class="node border" d="M5,0h78.87109375a5,5 0 0 1 5,5v75a5,5 0 0 1 -5,5h-78.87109375a5,5 0 0 1 -5,-5v-75a5,5 0 0 1 5,-5z" style="stroke: rgb(51, 51, 51); fill: none; stroke-width: 1px;"/></g><g id="node-name-/flatten/Flatten" class="node graph-node" transform="translate(20.896484375,368)" style="opacity: 1;"><g class="node-item node-item-type node-item-type-shape" transform="translate(0,0)"><path d="M5,0h37.078125a5,5 0 0 1 5,5v13a5,5 0 0 1 -5,5h-37.078125a5,5 0 0 1 -5,-5v-13a5,5 0 0 1 5,-5z" style="stroke: rgb(0, 0, 0); fill: rgb(108, 79, 71); stroke-width: 0;"/><text x="6" y="16" style="font-family: -apple-system, BlinkMacSystemFont, &quot;Segoe WPC&quot;, &quot;Segoe UI&quot;, Ubuntu, &quot;Droid Sans&quot;, sans-serif, &quot;PingFang SC&quot;; font-size: 11px; text-rendering: geometricprecision; user-select: none; fill: rgb(255, 255, 255);">Flatten</text><title>/flatten/Flatten</title></g><path class="node border" d="M5,0h37.078125a5,5 0 0 1 5,5v13a5,5 0 0 1 -5,5h-37.078125a5,5 0 0 1 -5,-5v-13a5,5 0 0 1 5,-5z" style="stroke: rgb(51, 51, 51); fill: none; stroke-width: 1px;"/></g><g id="node-name-/fc1/Gemm" class="node graph-node" transform="translate(4.052734375,411)" style="opacity: 1;"><g class="node-item node-item-type node-item-type-layer" transform="translate(0,0)"><path d="M5,0h70.765625a5,5 0 0 1 5,5v18a0,0 0 0 1 0,0h-80.765625a0,0 0 0 1 0,0v-18a5,5 0 0 1 5,-5z" style="stroke: rgb(0, 0, 0); fill: rgb(51, 85, 136); stroke-width: 0;"/><text x="6" y="16" style="font-family: -apple-system, BlinkMacSystemFont, &quot;Segoe WPC&quot;, &quot;Segoe UI&quot;, Ubuntu, &quot;Droid Sans&quot;, sans-serif, &quot;PingFang SC&quot;; font-size: 11px; text-rendering: geometricprecision; user-select: none; fill: rgb(255, 255, 255);">Gemm</text><title>/fc1/Gemm</title></g><g class="node-attribute" transform="translate(0,23)"><path d="M0,0h80.765625a0,0 0 0 1 0,0v43a5,5 0 0 1 -5,5h-70.765625a5,5 0 0 1 -5,-5v-43a0,0 0 0 1 0,0z" style="stroke: rgb(0, 0, 0); fill: rgb(255, 255, 255); stroke-width: 0;"/><text xml:space="preserve" x="6" y="14" style="font-family: -apple-system, BlinkMacSystemFont, &quot;Segoe WPC&quot;, &quot;Segoe UI&quot;, Ubuntu, &quot;Droid Sans&quot;, sans-serif, &quot;PingFang SC&quot;; font-size: 9px; font-weight: normal; text-rendering: geometricprecision; user-select: none;"><title>float32[2,1048576]</title><tspan style="font-weight: bold;">B</tspan><tspan>〈2×1048576〉</tspan></text><text xml:space="preserve" x="6" y="28" style="font-family: -apple-system, BlinkMacSystemFont, &quot;Segoe WPC&quot;, &quot;Segoe UI&quot;, Ubuntu, &quot;Droid Sans&quot;, sans-serif, &quot;PingFang SC&quot;; font-size: 9px; font-weight: normal; text-rendering: geometricprecision; user-select: none;"><title>float32[2]</title><tspan style="font-weight: bold;">C</tspan><tspan>〈2〉</tspan></text><text xml:space="preserve" x="6" y="42" style="font-family: -apple-system, BlinkMacSystemFont, &quot;Segoe WPC&quot;, &quot;Segoe UI&quot;, Ubuntu, &quot;Droid Sans&quot;, sans-serif, &quot;PingFang SC&quot;; font-size: 9px; font-weight: normal; text-rendering: geometricprecision; user-select: none;"><title>int64</title><tspan>transB</tspan><tspan> = 1</tspan></text><line class="node" x1="0" x2="80.765625" y1="0" y2="0" style="stroke: rgb(51, 51, 51); fill: none; stroke-width: 1px;"/></g><path class="node border" d="M5,0h70.765625a5,5 0 0 1 5,5v61a5,5 0 0 1 -5,5h-70.765625a5,5 0 0 1 -5,-5v-61a5,5 0 0 1 5,-5z" style="stroke: rgb(51, 51, 51); fill: none; stroke-width: 1px;"/></g><g class="node" transform="translate(34.435546875,526)" style="opacity: 1;"><g class="node-item graph-item-output" transform="translate(0,0)"><path d="M5,0h10a5,5 0 0 1 5,5v13a5,5 0 0 1 -5,5h-10a5,5 0 0 1 -5,-5v-13a5,5 0 0 1 5,-5z" style="stroke: rgb(0, 0, 0); fill: rgb(238, 238, 238); stroke-width: 0;"/><text x="6" y="16" style="font-family: -apple-system, BlinkMacSystemFont, &quot;Segoe WPC&quot;, &quot;Segoe UI&quot;, Ubuntu, &quot;Droid Sans&quot;, sans-serif, &quot;PingFang SC&quot;; font-size: 11px; text-rendering: geometricprecision; user-select: none;">9</text><title>float32[1,2]</title></g><path class="node border" d="M5,0h10a5,5 0 0 1 5,5v13a5,5 0 0 1 -5,5h-10a5,5 0 0 1 -5,-5v-13a5,5 0 0 1 5,-5z" style="stroke: rgb(51, 51, 51); fill: none; stroke-width: 1px;"/></g></g></g></svg>